<?xml version="1.0" standalone="no"?><!DOCTYPE svg PUBLIC "-//W3C//DTD SVG 1.1//EN" "http://www.w3.org/Graphics/SVG/1.1/DTD/svg11.dtd"><svg t="1672750614217" class="icon" viewBox="0 0 1024 1024" version="1.1" xmlns="http://www.w3.org/2000/svg" p-id="7664" data-spm-anchor-id="a313x.7781069.0.i12" xmlns:xlink="http://www.w3.org/1999/xlink" width="200" height="200"><path d="M749.098667 157.226667A426.24 426.24 0 0 1 938.666667 512c0 235.648-191.018667 426.666667-426.666667 426.666667S85.333333 747.648 85.333333 512a426.24 426.24 0 0 1 189.226667-354.56 42.666667 42.666667 0 1 1 47.530667 70.869333 341.333333 341.333333 0 1 0 379.52-0.213333 42.666667 42.666667 0 0 1 47.488-70.869333zM512 64a42.666667 42.666667 0 0 1 42.666667 42.666667v298.666666a42.666667 42.666667 0 0 1-85.333334 0v-298.666666a42.666667 42.666667 0 0 1 42.666667-42.666667z" fill="#1890ff" p-id="7665" data-spm-anchor-id="a313x.7781069.0.i13" class="selected"></path></svg>